# xmcd
#
# Track frame offsets:
#	150
#	12666
#	24948
#	36695
#	49136
#	61436
#	72958
#	85858
#	98365
#	108069
#	121185
#	133673
#	144998
#	156258
#	168793
#	181065
#	192578
#	205722
#	218997
#	231579
#	244179
#	256976
#	270045
#	282702
#	294599
#	306984
#	318347
#	330329
#	342001
#
# Disc length: 4724 seconds
# Revision: 1
# Processed by: cddbd v1.5.2PL0 Copyright (c) Steve Scherf et al.
# Submitted via: dBpowerAMP V12.0
#
DISCID=a412721d
DTITLE=Clarence "Gatemouth" Brown - Gate Walks To Board 1947 - 1960 Aladdin and Peacock Sides
DYEAR=2015
DGENRE=Blues
TTITLE0=Midnight Hour
TTITLE1=Thats Your Daddy Yaddy Yo
TTITLE2=Good Looking Woman
TTITLE3=Hurry Back Good News
TTITLE4=Gates Salty Blues
TTITLE5=Okie Dokie Stomp
TTITLE6=Ain't That Dandy
TTITLE7=Dirty Work At The Crossroads
TTITLE8=Just Before Dawn
TTITLE9=Depression Blues
TTITLE10=For Now So Long
TTITLE11=Gate Walks To Board
TTITLE12=You Got Money
TTITLE13=Please Tell Me Baby
TTITLE14=Boogie Uproar
TTITLE15=Baby Take It Easy
TTITLE16=She Winked Her Eye
TTITLE17=Win With Me, Baby
TTITLE18=Taking My Chances
TTITLE19=My Time Is Expensive
TTITLE20=Pale Dry Boogie part 1
TTITLE21=Pale Dry Boogie part 2
TTITLE22=Boogie Rambler
TTITLE23=I Live My Life
TTITLE24=Guitar In My Hand
TTITLE25=Without Me Baby
TTITLE26=Mary Is Fine
TTITLE27=Too Late Baby
TTITLE28=She Walks Right In
EXTD=
EXTT0=
EXTT1=
EXTT2=
EXTT3=
EXTT4=
EXTT5=
EXTT6=
EXTT7=
EXTT8=
EXTT9=
EXTT10=
EXTT11=
EXTT12=
EXTT13=
EXTT14=
EXTT15=
EXTT16=
EXTT17=
EXTT18=
EXTT19=
EXTT20=
EXTT21=
EXTT22=
EXTT23=
EXTT24=
EXTT25=
EXTT26=
EXTT27=
EXTT28=
PLAYORDER=
